<?xml version="1.0" encoding="utf-8"?>
<!-- Generator: Adobe Illustrator 24.0.1, SVG Export Plug-In . SVG Version: 6.00 Build 0)  -->
<svg version="1.1"
	 id="Camada_1" xmlns:cc="http://creativecommons.org/ns#" xmlns:dc="http://purl.org/dc/elements/1.1/" xmlns:inkscape="http://www.inkscape.org/namespaces/inkscape" xmlns:rdf="http://www.w3.org/1999/02/22-rdf-syntax-ns#" xmlns:sodipodi="http://sodipodi.sourceforge.net/DTD/sodipodi-0.dtd" xmlns:svg="http://www.w3.org/2000/svg"
	 xmlns="http://www.w3.org/2000/svg" xmlns:xlink="http://www.w3.org/1999/xlink" x="0px" y="0px" viewBox="0 0 84.8 82.9"
	 style="enable-background:new 0 0 84.8 82.9;" xml:space="preserve">
<style type="text/css">
	.st0{fill:#DB610E;}
</style>
<g transform="translate(0,-952.36218)">
	<path class="st0" d="M66.4,958.1l-30,4c-1,0.1-1.8,1-1.8,2c0,16.3,0,28.6,0,44.9c-1.3-0.7-2.9-1.1-4.5-1.3
		c-3.1-0.2-6.4,0.6-9.6,2.5c-3.2,1.8-5.6,4.4-7,7.1c-1.4,2.8-1.7,5.9-0.2,8.5c1.5,2.6,4.4,4,7.5,4.2c3.1,0.2,6.5-0.7,9.7-2.5
		c3.2-1.8,5.6-4.3,7-7.1c0.9-1.5,1.2-3.8,1.2-5.4v-39.3l28.3-3.8c1-0.1,1.7-1,1.8-2v-10C68.6,958.5,67.5,958,66.4,958.1L66.4,958.1z
		"/>
</g>
</svg>
